M48
; DRILL file {KiCad (7.0.0-0)} date Tuesday, 05 March 2024 at 23:41:07
; FORMAT={-:-/ absolute / metric / decimal}
; #@! TF.CreationDate,2024-03-05T23:41:07+09:00
; #@! TF.GenerationSoftware,Kicad,Pcbnew,(7.0.0-0)
; #@! TF.FileFunction,Plated,1,2,PTH
FMAT,2
METRIC
; #@! TA.AperFunction,Plated,PTH,ViaDrill
T1C0.300
; #@! TA.AperFunction,Plated,PTH,ComponentDrill
T2C0.800
%
G90
G05
T1
X123.19Y-99.06
X123.19Y-114.3
X123.19Y-129.54
X125.73Y-95.25
X125.73Y-107.95
X125.73Y-119.38
X125.73Y-132.08
X127.75Y-132.27
X128.94Y-100.25
X129.18Y-108.87
X129.48Y-95.87
X130.36Y-123.14
X131.35Y-132.22
X131.55Y-94.04
X132.61Y-100.3
X132.69Y-104.33
X132.76Y-110.01
X132.85Y-107.32
X133.09Y-114.7
X133.13Y-116.89
X133.13Y-124.92
X135.33Y-104.08
X137.14Y-123.72
X137.22Y-112.98
X137.28Y-130.93
X137.287Y-95.25
X137.41Y-122.02
X137.47Y-118.43
X137.822Y-95.874
X138.49Y-107.78
X138.92Y-104.02
X139.04Y-100.18
X139.38Y-130.96
X139.954Y-94.626
X140.58Y-115.06
X140.736Y-129.1
X141.11Y-130.94
X141.68Y-104.15
X141.85Y-109.09
X142.81Y-131.5
X144.16Y-131.21
X144.52Y-104.15
X145.27Y-126.83
X145.63Y-108.6
X146.06Y-102.21
X146.48Y-99.57
X147.2Y-130.15
X147.547Y-120.427
X147.571Y-119.377
X148.024Y-124.76
X148.51Y-99.19
X148.72Y-93.72
X148.86Y-113.39
X148.98Y-118.49
X149.97Y-97.35
X149.97Y-130.66
X150.55Y-101.86
X152.07Y-120.766
X152.38Y-132.75
X152.9Y-114.57
X153.046Y-130.94
X154.02Y-107.97
X154.19Y-98.92
X154.52Y-102.408
X154.98Y-117.62
X155.0Y-132.63
X155.47Y-98.858
X155.49Y-97.02
X157.22Y-132.8
X157.57Y-130.18
X158.24Y-107.07
X158.75Y-131.572
X158.985Y-102.365
X159.6Y-103.657
X159.66Y-101.38
X160.136Y-130.165
X160.22Y-132.69
X160.25Y-96.81
X160.528Y-94.626
X160.72Y-104.35
X161.036Y-125.984
X161.29Y-131.572
X161.798Y-121.158
X162.8Y-132.71
X162.98Y-130.19
X163.23Y-96.6
X163.83Y-121.92
X164.244Y-129.677
X164.592Y-96.52
X164.79Y-94.05
X164.846Y-132.08
X165.49Y-129.0
X165.84Y-121.44
X165.95Y-97.08
X165.96Y-104.41
X165.96Y-114.01
X166.68Y-130.927
X166.97Y-120.886
X167.132Y-94.626
X167.62Y-110.79
X167.64Y-129.032
X168.09Y-132.24
X168.22Y-114.24
X168.25Y-124.74
X168.402Y-95.133
X168.52Y-97.02
X168.55Y-100.85
X168.6Y-121.47
X169.23Y-115.69
X169.37Y-110.91
X169.672Y-100.358
X170.03Y-93.75
X170.472Y-100.358
X170.942Y-124.206
X171.03Y-96.76
X171.09Y-111.03
X171.45Y-102.616
X171.62Y-118.16
X172.72Y-129.032
X172.86Y-111.02
X173.0Y-107.52
X173.25Y-102.93
X173.736Y-123.444
X173.75Y-100.01
X174.04Y-132.18
X174.1Y-120.65
X174.591Y-115.991
X175.26Y-129.032
X175.84Y-113.69
X175.85Y-110.89
X175.88Y-121.92
X176.1Y-118.92
X176.784Y-123.444
X177.038Y-119.634
X177.58Y-113.67
X177.8Y-121.92
X178.13Y-117.19
X178.68Y-126.13
X178.816Y-121.412
X179.14Y-122.471
X179.171Y-123.27
X179.35Y-110.96
X179.65Y-123.91
X180.3Y-132.3
X180.33Y-128.59
X180.65Y-119.67
X180.964Y-122.74
X182.06Y-125.79
X182.15Y-121.34
X182.64Y-115.61
X182.86Y-113.72
X182.87Y-111.0
X183.025Y-128.71
X183.642Y-132.334
X184.15Y-108.458
X184.15Y-129.032
X184.168Y-115.277
X184.72Y-120.45
X184.93Y-122.98
X185.169Y-115.509
X185.674Y-127.254
X185.989Y-115.377
X186.182Y-131.318
X186.27Y-109.99
X186.436Y-112.522
X186.436Y-118.364
X186.69Y-132.334
X187.69Y-129.66
X187.96Y-114.554
X188.65Y-104.17
X189.09Y-124.17
X189.2Y-96.33
X189.23Y-107.442
X189.464Y-102.128
X189.992Y-115.57
X190.4Y-120.98
X190.5Y-118.11
X190.71Y-107.57
X191.008Y-113.03
X191.008Y-115.062
X191.03Y-109.9
X191.03Y-110.88
X191.03Y-112.01
X191.24Y-104.2
X191.73Y-100.92
X191.8Y-126.09
X191.831Y-122.996
X192.532Y-103.124
X194.23Y-131.17
X194.91Y-107.79
X194.99Y-103.56
X195.326Y-112.268
X195.326Y-119.126
X195.326Y-121.666
X195.326Y-124.968
X195.326Y-126.492
X195.457Y-100.84
X195.58Y-114.3
X196.39Y-96.39
X196.596Y-119.888
X197.419Y-103.825
X198.41Y-107.77
X199.31Y-109.11
X199.36Y-129.78
X199.39Y-114.046
X199.39Y-116.84
X199.39Y-121.92
X199.39Y-126.492
X200.43Y-100.31
X201.44Y-132.39
X201.88Y-104.39
X202.04Y-109.31
X203.23Y-119.17
X203.31Y-126.03
X203.48Y-107.71
X203.53Y-104.37
X203.64Y-100.38
X203.78Y-94.18
X205.07Y-129.26
X205.36Y-120.65
T2
X128.99Y-98.43
X128.99Y-106.05
X131.445Y-111.76
X131.445Y-114.3
X131.445Y-116.84
X131.445Y-119.38
X131.445Y-121.92
X131.445Y-124.46
X131.445Y-127.0
X131.53Y-98.43
X131.53Y-106.05
X134.07Y-98.43
X134.07Y-106.05
X136.61Y-98.43
X136.61Y-106.05
X139.065Y-111.76
X139.065Y-114.3
X139.065Y-116.84
X139.065Y-119.38
X139.065Y-121.92
X139.065Y-124.46
X139.065Y-127.0
X139.15Y-98.43
X139.15Y-106.05
X141.69Y-98.43
X141.69Y-106.05
X144.23Y-98.43
X144.23Y-106.05
X144.63Y-112.66
X144.63Y-117.66
X148.43Y-101.08
X148.43Y-106.08
X151.13Y-112.395
X151.13Y-112.395
X151.13Y-127.635
X151.13Y-127.635
X152.75Y-101.1
X152.75Y-106.1
X153.67Y-112.395
X153.67Y-112.395
X153.67Y-127.635
X153.67Y-127.635
X156.21Y-112.395
X156.21Y-112.395
X156.21Y-127.635
X156.21Y-127.635
X156.972Y-98.298
X156.972Y-105.918
X158.75Y-112.395
X158.75Y-112.395
X158.75Y-127.635
X158.75Y-127.635
X159.512Y-98.298
X159.512Y-105.918
X161.29Y-112.395
X161.29Y-112.395
X161.29Y-127.635
X161.29Y-127.635
X162.052Y-98.298
X162.052Y-105.918
X163.83Y-112.395
X163.83Y-112.395
X163.83Y-127.635
X163.83Y-127.635
X164.592Y-98.298
X164.592Y-105.918
X166.37Y-112.395
X166.37Y-112.395
X166.37Y-127.635
X166.37Y-127.635
X167.132Y-98.298
X167.132Y-105.918
X168.91Y-112.395
X168.91Y-112.395
X168.91Y-127.635
X168.91Y-127.635
X169.672Y-98.298
X169.672Y-105.918
X171.45Y-112.395
X171.45Y-112.395
X171.45Y-127.635
X171.45Y-127.635
X172.212Y-98.298
X172.212Y-105.918
X173.99Y-112.395
X173.99Y-112.395
X173.99Y-127.635
X173.99Y-127.635
X174.752Y-98.298
X174.752Y-105.918
X176.53Y-112.395
X176.53Y-112.395
X176.53Y-127.635
X176.53Y-127.635
X179.07Y-112.395
X179.07Y-112.395
X179.07Y-127.635
X179.07Y-127.635
X179.12Y-101.54
X179.17Y-105.93
X179.24Y-96.99
X181.61Y-112.395
X181.61Y-127.635
X184.12Y-101.54
X184.15Y-112.395
X184.15Y-127.635
X184.17Y-105.93
X184.24Y-96.99
X188.595Y-98.425
X188.595Y-106.045
X189.21Y-117.46
X189.21Y-122.46
X189.21Y-122.46
X191.135Y-98.425
X191.135Y-106.045
X193.548Y-111.76
X193.548Y-114.3
X193.548Y-116.84
X193.548Y-119.38
X193.548Y-121.92
X193.548Y-124.46
X193.548Y-127.0
X193.675Y-98.425
X193.675Y-106.045
X196.215Y-98.425
X196.215Y-106.045
X198.755Y-98.425
X198.755Y-106.045
X201.168Y-111.76
X201.168Y-114.3
X201.168Y-116.84
X201.168Y-119.38
X201.168Y-121.92
X201.168Y-124.46
X201.168Y-127.0
X201.295Y-98.425
X201.295Y-106.045
X203.835Y-98.425
X203.835Y-106.045
X204.53Y-111.89
X204.53Y-116.89
T0
M30
