G04 #@! TF.GenerationSoftware,KiCad,Pcbnew,(7.0.0-0)*
G04 #@! TF.CreationDate,2024-03-05T23:33:03+09:00*
G04 #@! TF.ProjectId,Grappler_Minus_Keros_alldip_GH_1.4,47726170-706c-4657-925f-4d696e75735f,3*
G04 #@! TF.SameCoordinates,Original*
G04 #@! TF.FileFunction,Soldermask,Bot*
G04 #@! TF.FilePolarity,Negative*
%FSLAX46Y46*%
G04 Gerber Fmt 4.6, Leading zero omitted, Abs format (unit mm)*
G04 Created by KiCad (PCBNEW (7.0.0-0)) date 2024-03-05 23:33:03*
%MOMM*%
%LPD*%
G01*
G04 APERTURE LIST*
G04 Aperture macros list*
%AMRoundRect*
0 Rectangle with rounded corners*
0 $1 Rounding radius*
0 $2 $3 $4 $5 $6 $7 $8 $9 X,Y pos of 4 corners*
0 Add a 4 corners polygon primitive as box body*
4,1,4,$2,$3,$4,$5,$6,$7,$8,$9,$2,$3,0*
0 Add four circle primitives for the rounded corners*
1,1,$1+$1,$2,$3*
1,1,$1+$1,$4,$5*
1,1,$1+$1,$6,$7*
1,1,$1+$1,$8,$9*
0 Add four rect primitives between the rounded corners*
20,1,$1+$1,$2,$3,$4,$5,0*
20,1,$1+$1,$4,$5,$6,$7,0*
20,1,$1+$1,$6,$7,$8,$9,0*
20,1,$1+$1,$8,$9,$2,$3,0*%
G04 Aperture macros list end*
%ADD10C,0.050000*%
%ADD11R,1.600000X1.600000*%
%ADD12O,1.600000X1.600000*%
%ADD13C,1.600000*%
%ADD14RoundRect,0.381000X0.381000X3.175000X-0.381000X3.175000X-0.381000X-3.175000X0.381000X-3.175000X0*%
G04 #@! TA.AperFunction,Profile*
%ADD15C,0.100000*%
G04 #@! TD*
G04 #@! TA.AperFunction,Profile*
%ADD16C,0.150000*%
G04 #@! TD*
G04 APERTURE END LIST*
D10*
X110480184Y-125379023D02*
X176470184Y-125379023D01*
X176470184Y-125379023D02*
X176470184Y-132872023D01*
X176470184Y-132872023D02*
X110480184Y-132872023D01*
X110480184Y-132872023D02*
X110480184Y-125379023D01*
G36*
X110480184Y-125379023D02*
G01*
X176470184Y-125379023D01*
X176470184Y-132872023D01*
X110480184Y-132872023D01*
X110480184Y-125379023D01*
G37*
D11*
X145225183Y-89824022D03*
D12*
X142685183Y-89824022D03*
X140145183Y-89824022D03*
X137605183Y-89824022D03*
X135065183Y-89824022D03*
X132525183Y-89824022D03*
X129985183Y-89824022D03*
X127445183Y-89824022D03*
X127445183Y-97444022D03*
X129985183Y-97444022D03*
X132525183Y-97444022D03*
X135065183Y-97444022D03*
X137605183Y-97444022D03*
X140145183Y-97444022D03*
X142685183Y-97444022D03*
X145225183Y-97444022D03*
D13*
X118565184Y-96954023D03*
X118565184Y-91954023D03*
X108135184Y-96954023D03*
X108135184Y-91954023D03*
D14*
X174025184Y-128554023D03*
X171485184Y-128554023D03*
X168945184Y-128554023D03*
X166405184Y-128554023D03*
X163865184Y-128554023D03*
X161325184Y-128554023D03*
X158785184Y-128554023D03*
X156245184Y-128554023D03*
X153705184Y-128554023D03*
X151165184Y-128554023D03*
X148625184Y-128554023D03*
X146085184Y-128554023D03*
X143545184Y-128554023D03*
X141005184Y-128554023D03*
X138465184Y-128554023D03*
X135925184Y-128554023D03*
X133385184Y-128554023D03*
X130845184Y-128554023D03*
X128305184Y-128554023D03*
X125765184Y-128554023D03*
X123225184Y-128554023D03*
X120685184Y-128554023D03*
X118145184Y-128554023D03*
X115605184Y-128554023D03*
X113065184Y-128554023D03*
D11*
X109335183Y-103414022D03*
D12*
X109335183Y-105954022D03*
X109335183Y-108494022D03*
X109335183Y-111034022D03*
X109335183Y-113574022D03*
X109335183Y-116114022D03*
X109335183Y-118654022D03*
X116955183Y-118654022D03*
X116955183Y-116114022D03*
X116955183Y-113574022D03*
X116955183Y-111034022D03*
X116955183Y-108494022D03*
X116955183Y-105954022D03*
X116955183Y-103414022D03*
D13*
X179235184Y-108944023D03*
X179235184Y-113944023D03*
D11*
X153715183Y-103809022D03*
D12*
X151175183Y-103809022D03*
X148635183Y-103809022D03*
X146095183Y-103809022D03*
X143555183Y-103809022D03*
X141015183Y-103809022D03*
X138475183Y-103809022D03*
X135935183Y-103809022D03*
X133395183Y-103809022D03*
X130855183Y-103809022D03*
X128315183Y-103809022D03*
X125775183Y-103809022D03*
X125775183Y-119049022D03*
X128315183Y-119049022D03*
X130855183Y-119049022D03*
X133395183Y-119049022D03*
X135935183Y-119049022D03*
X138475183Y-119049022D03*
X141015183Y-119049022D03*
X143555183Y-119049022D03*
X146095183Y-119049022D03*
X148635183Y-119049022D03*
X151175183Y-119049022D03*
X153715183Y-119049022D03*
D13*
X151885184Y-88454023D03*
X156885184Y-88454023D03*
X113345184Y-91984023D03*
X113345184Y-96984023D03*
D11*
X168193183Y-103174022D03*
D12*
X168193183Y-105714022D03*
X168193183Y-108254022D03*
X168193183Y-110794022D03*
X168193183Y-113334022D03*
X168193183Y-115874022D03*
X168193183Y-118414022D03*
X175813183Y-118414022D03*
X175813183Y-115874022D03*
X175813183Y-113334022D03*
X175813183Y-110794022D03*
X175813183Y-108254022D03*
X175813183Y-105714022D03*
X175813183Y-103174022D03*
D13*
X163855184Y-113874023D03*
X151815184Y-97394023D03*
X156815184Y-97394023D03*
D11*
X158795183Y-103809022D03*
D12*
X156255183Y-103809022D03*
X153715183Y-103809022D03*
X151175183Y-103809022D03*
X148635183Y-103809022D03*
X146095183Y-103809022D03*
X143555183Y-103809022D03*
X141015183Y-103809022D03*
X138475183Y-103809022D03*
X135935183Y-103809022D03*
X133395183Y-103809022D03*
X130855183Y-103809022D03*
X128315183Y-103809022D03*
X125775183Y-103809022D03*
X125775183Y-119049022D03*
X128315183Y-119049022D03*
X130855183Y-119049022D03*
X133395183Y-119049022D03*
X135935183Y-119049022D03*
X138475183Y-119049022D03*
X141015183Y-119049022D03*
X143555183Y-119049022D03*
X146095183Y-119049022D03*
X148635183Y-119049022D03*
X151175183Y-119049022D03*
X153715183Y-119049022D03*
X156255183Y-119049022D03*
X158795183Y-119049022D03*
D13*
X151765184Y-93004023D03*
X156765184Y-93004023D03*
D11*
X178480183Y-89839022D03*
D12*
X175940183Y-89839022D03*
X173400183Y-89839022D03*
X170860183Y-89839022D03*
X168320183Y-89839022D03*
X165780183Y-89839022D03*
X163240183Y-89839022D03*
X163240183Y-97459022D03*
X165780183Y-97459022D03*
X168320183Y-97459022D03*
X170860183Y-97459022D03*
X173400183Y-97459022D03*
X175940183Y-97459022D03*
X178480183Y-97459022D03*
D13*
X163855184Y-108874023D03*
X163855184Y-113874023D03*
D15*
X180013184Y-124768984D02*
G75*
G03*
X181283184Y-123499023I16J1269984D01*
G01*
D16*
X96915184Y-123494023D02*
X96915184Y-87344023D01*
X181283184Y-123499023D02*
X181287184Y-87349023D01*
X109582684Y-124764023D02*
X98185184Y-124764023D01*
D15*
X176257684Y-131749023D02*
X175622684Y-132384023D01*
X175622684Y-132384023D02*
X111487684Y-132384023D01*
D16*
X180013184Y-124769023D02*
X177527684Y-124764023D01*
D15*
X96915177Y-123494023D02*
G75*
G03*
X98185184Y-124764023I1270023J23D01*
G01*
X176257684Y-126034023D02*
X176257684Y-131749023D01*
X110852677Y-126034023D02*
G75*
G03*
X109582684Y-124764023I-1269977J23D01*
G01*
D16*
X181287177Y-87349023D02*
G75*
G03*
X178307184Y-84369023I-2979977J23D01*
G01*
X99895184Y-84363984D02*
G75*
G03*
X96915184Y-87344023I16J-2980016D01*
G01*
X99895184Y-84364023D02*
X178307184Y-84369023D01*
D15*
X177527684Y-124763984D02*
G75*
G03*
X176257684Y-126034023I16J-1270016D01*
G01*
X110852684Y-126034023D02*
X110852684Y-131749023D01*
X110852684Y-131749023D02*
X111487684Y-132384023D01*
M02*
