M48
; DRILL file {KiCad (7.0.0-0)} date Tuesday, 05 March 2024 at 23:33:06
; FORMAT={-:-/ absolute / metric / decimal}
; #@! TF.CreationDate,2024-03-05T23:33:06+09:00
; #@! TF.GenerationSoftware,Kicad,Pcbnew,(7.0.0-0)
; #@! TF.FileFunction,Plated,1,2,PTH
FMAT,2
METRIC
; #@! TA.AperFunction,Plated,PTH,ViaDrill
T1C0.300
; #@! TA.AperFunction,Plated,PTH,ComponentDrill
T2C0.800
%
G90
G05
T1
X97.835Y-90.474
X97.835Y-105.714
X97.835Y-120.954
X100.375Y-86.664
X100.375Y-99.364
X100.375Y-110.794
X100.375Y-123.494
X102.395Y-123.684
X104.125Y-87.284
X104.285Y-114.934
X105.275Y-97.584
X105.995Y-123.634
X106.195Y-85.454
X107.185Y-106.864
X107.255Y-104.734
X107.335Y-117.064
X107.455Y-108.834
X107.485Y-110.524
X111.595Y-113.944
X111.932Y-86.664
X113.275Y-89.364
X113.715Y-87.289
X114.025Y-122.374
X114.599Y-86.04
X114.645Y-109.224
X115.095Y-112.344
X115.225Y-106.474
X115.325Y-102.304
X116.745Y-121.374
X117.015Y-123.284
X118.651Y-119.655
X118.845Y-121.774
X119.435Y-108.164
X119.655Y-123.454
X121.415Y-112.504
X121.845Y-121.564
X122.192Y-111.841
X122.67Y-116.174
X123.155Y-90.604
X123.505Y-104.804
X123.625Y-109.904
X124.615Y-122.074
X125.195Y-93.274
X126.675Y-123.624
X126.715Y-112.181
X127.545Y-105.984
X127.691Y-122.354
X128.665Y-99.384
X129.615Y-123.574
X129.625Y-109.034
X131.185Y-88.394
X131.685Y-91.834
X132.215Y-121.594
X132.355Y-123.584
X133.395Y-122.986
X133.775Y-95.934
X133.965Y-92.794
X134.782Y-121.579
X135.015Y-123.574
X135.173Y-86.04
X135.935Y-122.986
X136.443Y-112.572
X136.665Y-117.054
X137.625Y-121.604
X137.625Y-123.584
X137.645Y-87.85
X138.475Y-113.334
X138.889Y-121.092
X139.491Y-123.494
X140.065Y-86.781
X140.135Y-120.414
X140.485Y-112.854
X140.605Y-105.424
X141.03Y-122.341
X141.616Y-112.3
X142.205Y-91.772
X142.285Y-120.446
X142.395Y-93.174
X142.555Y-95.914
X142.675Y-123.474
X142.865Y-105.654
X142.895Y-116.154
X143.245Y-112.884
X143.875Y-107.104
X144.015Y-102.324
X145.384Y-92.057
X145.587Y-115.62
X145.735Y-102.444
X146.095Y-94.03
X146.265Y-109.574
X147.365Y-120.446
X147.505Y-102.434
X148.381Y-114.858
X148.685Y-123.594
X148.745Y-112.064
X148.995Y-89.434
X149.215Y-96.444
X149.236Y-107.405
X149.485Y-92.834
X149.905Y-120.446
X150.485Y-105.104
X150.495Y-102.304
X150.525Y-113.335
X150.745Y-110.334
X151.429Y-114.858
X151.683Y-111.048
X152.225Y-105.084
X152.445Y-113.334
X152.775Y-108.604
X152.905Y-94.894
X153.325Y-117.544
X153.385Y-93.844
X153.461Y-112.826
X153.785Y-113.885
X153.816Y-114.684
X153.995Y-102.374
X154.295Y-115.324
X154.945Y-123.714
X154.975Y-120.004
X155.295Y-111.084
X155.61Y-114.154
X156.705Y-117.204
X156.795Y-112.754
X157.285Y-107.024
X157.505Y-105.134
X157.515Y-102.414
X158.287Y-123.748
X158.795Y-99.872
X158.795Y-120.446
X158.813Y-106.691
X159.365Y-111.864
X159.575Y-114.394
X159.814Y-106.923
X160.115Y-87.304
X160.319Y-118.668
X160.634Y-106.791
X160.915Y-101.404
X161.081Y-103.936
X161.081Y-109.778
X161.355Y-123.474
X162.335Y-121.074
X162.605Y-105.968
X163.295Y-95.584
X163.735Y-115.584
X163.875Y-98.856
X164.109Y-93.542
X164.637Y-106.984
X165.045Y-112.394
X165.145Y-109.524
X165.355Y-98.984
X165.653Y-104.444
X165.653Y-106.476
X165.675Y-101.314
X165.675Y-102.294
X165.675Y-103.424
X165.885Y-95.614
X166.375Y-92.334
X166.445Y-117.504
X166.476Y-114.41
X166.705Y-87.534
X167.135Y-93.604
X167.177Y-94.538
X168.875Y-122.584
X169.555Y-99.204
X169.635Y-94.974
X169.971Y-103.682
X169.971Y-110.54
X169.971Y-113.08
X169.971Y-116.382
X169.971Y-117.906
X170.102Y-92.254
X170.225Y-105.714
X171.035Y-87.804
X171.241Y-111.302
X172.064Y-95.239
X173.955Y-100.524
X174.005Y-121.194
X174.035Y-105.46
X174.035Y-108.254
X174.035Y-113.334
X174.035Y-117.906
X175.655Y-91.434
X176.085Y-123.804
X176.525Y-95.804
X176.685Y-100.724
X178.125Y-99.124
X178.175Y-95.784
X178.285Y-91.794
X178.425Y-85.594
X179.715Y-120.674
X180.005Y-112.064
T2
X108.135Y-91.954
X108.135Y-96.954
X109.335Y-103.414
X109.335Y-105.954
X109.335Y-108.494
X109.335Y-111.034
X109.335Y-113.574
X109.335Y-116.114
X109.335Y-118.654
X113.345Y-91.984
X113.345Y-96.984
X116.955Y-103.414
X116.955Y-105.954
X116.955Y-108.494
X116.955Y-111.034
X116.955Y-113.574
X116.955Y-116.114
X116.955Y-118.654
X118.565Y-91.954
X118.565Y-96.954
X125.775Y-103.809
X125.775Y-103.809
X125.775Y-119.049
X125.775Y-119.049
X127.445Y-89.824
X127.445Y-97.444
X128.315Y-103.809
X128.315Y-103.809
X128.315Y-119.049
X128.315Y-119.049
X129.985Y-89.824
X129.985Y-97.444
X130.855Y-103.809
X130.855Y-103.809
X130.855Y-119.049
X130.855Y-119.049
X132.525Y-89.824
X132.525Y-97.444
X133.395Y-103.809
X133.395Y-103.809
X133.395Y-119.049
X133.395Y-119.049
X135.065Y-89.824
X135.065Y-97.444
X135.935Y-103.809
X135.935Y-103.809
X135.935Y-119.049
X135.935Y-119.049
X137.605Y-89.824
X137.605Y-97.444
X138.475Y-103.809
X138.475Y-103.809
X138.475Y-119.049
X138.475Y-119.049
X140.145Y-89.824
X140.145Y-97.444
X141.015Y-103.809
X141.015Y-103.809
X141.015Y-119.049
X141.015Y-119.049
X142.685Y-89.824
X142.685Y-97.444
X143.555Y-103.809
X143.555Y-103.809
X143.555Y-119.049
X143.555Y-119.049
X145.225Y-89.824
X145.225Y-97.444
X146.095Y-103.809
X146.095Y-103.809
X146.095Y-119.049
X146.095Y-119.049
X148.635Y-103.809
X148.635Y-103.809
X148.635Y-119.049
X148.635Y-119.049
X151.175Y-103.809
X151.175Y-103.809
X151.175Y-119.049
X151.175Y-119.049
X151.765Y-93.004
X151.815Y-97.394
X151.885Y-88.454
X153.715Y-103.809
X153.715Y-103.809
X153.715Y-119.049
X153.715Y-119.049
X156.255Y-103.809
X156.255Y-119.049
X156.765Y-93.004
X156.815Y-97.394
X156.885Y-88.454
X158.795Y-103.809
X158.795Y-119.049
X163.24Y-89.839
X163.24Y-97.459
X163.855Y-108.874
X163.855Y-113.874
X163.855Y-113.874
X165.78Y-89.839
X165.78Y-97.459
X168.193Y-103.174
X168.193Y-105.714
X168.193Y-108.254
X168.193Y-110.794
X168.193Y-113.334
X168.193Y-115.874
X168.193Y-118.414
X168.32Y-89.839
X168.32Y-97.459
X170.86Y-89.839
X170.86Y-97.459
X173.4Y-89.839
X173.4Y-97.459
X175.813Y-103.174
X175.813Y-105.714
X175.813Y-108.254
X175.813Y-110.794
X175.813Y-113.334
X175.813Y-115.874
X175.813Y-118.414
X175.94Y-89.839
X175.94Y-97.459
X178.48Y-89.839
X178.48Y-97.459
X179.235Y-108.944
X179.235Y-113.944
T0
M30
