M48
; DRILL file {KiCad (7.0.0-0)} date Monday, 15 January 2024 at 01:27:12
; FORMAT={-:-/ absolute / metric / decimal}
; #@! TF.CreationDate,2024-01-15T01:27:12+09:00
; #@! TF.GenerationSoftware,Kicad,Pcbnew,(7.0.0-0)
; #@! TF.FileFunction,Plated,1,2,PTH
FMAT,2
METRIC
; #@! TA.AperFunction,Plated,PTH,ViaDrill
T1C0.300
; #@! TA.AperFunction,Plated,PTH,ComponentDrill
T2C0.800
%
G90
G05
T1
X123.19Y-99.06
X123.19Y-114.3
X123.19Y-129.54
X125.73Y-95.25
X125.73Y-107.95
X125.73Y-119.38
X125.73Y-132.08
X127.75Y-132.27
X129.18Y-108.87
X129.25Y-99.47
X129.48Y-95.87
X130.36Y-123.14
X131.35Y-132.22
X131.55Y-94.04
X131.84Y-104.31
X132.28Y-115.52
X132.61Y-100.3
X132.76Y-110.01
X132.85Y-107.32
X133.13Y-124.92
X133.35Y-119.49
X135.33Y-100.18
X135.33Y-104.08
X136.525Y-96.012
X137.14Y-123.72
X137.22Y-112.98
X137.28Y-130.93
X137.297Y-102.408
X137.41Y-122.02
X137.55Y-126.75
X137.8Y-96.23
X138.49Y-107.78
X138.92Y-104.02
X139.04Y-100.18
X139.38Y-130.96
X139.954Y-94.626
X140.34Y-96.23
X140.345Y-126.709
X140.44Y-117.88
X140.57Y-120.6
X141.68Y-104.15
X141.73Y-115.92
X141.85Y-109.09
X141.92Y-112.6
X142.23Y-131.18
X143.256Y-96.266
X143.29Y-100.24
X144.16Y-131.21
X144.52Y-104.15
X145.27Y-126.83
X145.415Y-96.901
X145.6Y-101.3
X145.63Y-108.6
X146.413Y-120.535
X146.978Y-119.97
X147.14Y-104.24
X147.2Y-130.15
X147.38Y-112.97
X147.571Y-119.377
X148.024Y-124.76
X148.72Y-93.72
X148.73Y-101.2
X148.98Y-118.49
X149.4Y-105.01
X149.97Y-97.35
X149.97Y-130.66
X150.44Y-114.09
X152.07Y-120.766
X152.38Y-132.75
X152.76Y-130.51
X152.9Y-114.57
X153.57Y-100.6
X154.02Y-107.97
X154.178Y-102.408
X154.42Y-98.66
X154.97Y-104.4
X154.98Y-117.62
X155.0Y-132.63
X155.49Y-97.02
X157.22Y-132.8
X157.38Y-101.9
X157.67Y-130.185
X158.24Y-107.07
X158.75Y-131.572
X159.66Y-101.38
X160.136Y-130.81
X160.22Y-132.69
X160.25Y-96.81
X160.528Y-94.626
X160.72Y-104.35
X161.036Y-125.984
X161.29Y-131.572
X161.56Y-129.13
X161.798Y-121.158
X162.8Y-132.71
X163.206Y-130.185
X163.23Y-96.6
X163.83Y-121.92
X164.244Y-129.677
X164.592Y-96.52
X164.79Y-94.05
X164.846Y-120.766
X164.846Y-132.08
X165.49Y-129.0
X165.95Y-97.08
X165.96Y-104.41
X165.96Y-114.01
X166.37Y-131.826
X167.132Y-94.626
X167.62Y-110.79
X167.64Y-129.032
X167.894Y-102.362
X167.894Y-121.92
X168.09Y-132.24
X168.22Y-114.24
X168.402Y-95.133
X168.52Y-97.02
X168.55Y-100.85
X169.23Y-115.69
X169.37Y-110.91
X169.664Y-122.303
X169.672Y-100.358
X170.03Y-93.75
X170.688Y-107.442
X170.71Y-100.38
X170.942Y-124.206
X171.03Y-96.76
X171.09Y-111.03
X171.45Y-102.616
X171.45Y-132.08
X171.57Y-118.95
X171.582Y-101.6
X171.86Y-104.16
X172.25Y-120.43
X172.72Y-129.032
X172.86Y-111.02
X173.0Y-107.52
X173.25Y-102.93
X173.736Y-123.444
X173.75Y-100.01
X174.04Y-132.18
X174.1Y-120.65
X174.591Y-115.991
X175.26Y-129.032
X175.85Y-110.89
X175.88Y-121.92
X176.1Y-118.92
X176.784Y-123.444
X177.038Y-119.634
X177.8Y-121.92
X178.237Y-114.594
X178.68Y-126.13
X178.816Y-121.412
X179.1Y-116.73
X179.14Y-122.471
X179.171Y-123.27
X179.35Y-110.96
X179.65Y-123.91
X180.086Y-118.872
X180.3Y-132.3
X180.34Y-109.474
X180.34Y-129.032
X180.964Y-122.74
X182.06Y-125.79
X182.15Y-121.34
X182.245Y-129.159
X182.64Y-115.61
X183.134Y-129.032
X183.642Y-132.334
X184.15Y-108.458
X184.15Y-129.032
X184.41Y-98.86
X184.72Y-120.45
X184.912Y-115.57
X184.93Y-122.98
X185.674Y-127.254
X185.928Y-115.824
X186.182Y-131.318
X186.27Y-109.99
X186.436Y-112.522
X186.436Y-118.364
X186.69Y-107.834
X186.69Y-132.334
X187.69Y-129.66
X187.706Y-117.094
X187.96Y-114.554
X188.44Y-125.08
X188.65Y-104.17
X189.2Y-96.33
X189.23Y-107.442
X189.464Y-102.128
X189.81Y-123.62
X189.992Y-115.57
X190.5Y-118.11
X190.754Y-121.412
X191.008Y-111.76
X191.008Y-113.03
X191.008Y-115.062
X191.03Y-109.9
X191.24Y-104.2
X191.73Y-100.92
X191.8Y-126.09
X191.831Y-122.996
X192.532Y-103.124
X192.786Y-123.19
X194.23Y-131.17
X194.91Y-107.79
X194.99Y-103.56
X195.326Y-112.268
X195.326Y-119.126
X195.326Y-121.666
X195.326Y-124.968
X195.326Y-126.492
X195.457Y-100.84
X195.58Y-114.3
X196.39Y-96.39
X196.596Y-119.888
X196.733Y-111.76
X197.419Y-103.825
X198.41Y-107.77
X199.31Y-109.11
X199.36Y-129.78
X199.39Y-114.046
X199.39Y-116.84
X199.39Y-121.92
X199.39Y-126.492
X200.43Y-100.31
X201.44Y-132.39
X201.88Y-104.39
X202.04Y-109.31
X203.23Y-119.17
X203.31Y-126.03
X203.48Y-107.71
X203.53Y-104.37
X203.64Y-100.38
X203.78Y-94.18
X205.07Y-129.26
X205.36Y-120.65
T2
X131.445Y-98.425
X131.445Y-106.045
X131.445Y-111.76
X131.445Y-114.3
X131.445Y-116.84
X131.445Y-119.38
X131.445Y-121.92
X131.445Y-124.46
X131.445Y-127.0
X133.985Y-98.425
X133.985Y-106.045
X136.525Y-98.425
X136.525Y-106.045
X139.065Y-98.425
X139.065Y-106.045
X139.065Y-111.76
X139.065Y-114.3
X139.065Y-116.84
X139.065Y-119.38
X139.065Y-121.92
X139.065Y-124.46
X139.065Y-127.0
X141.605Y-98.425
X141.605Y-106.045
X144.145Y-98.425
X144.145Y-106.045
X144.63Y-111.54
X144.63Y-116.54
X146.685Y-98.425
X146.685Y-106.045
X151.13Y-112.395
X151.13Y-112.395
X151.13Y-127.635
X151.13Y-127.635
X151.87Y-100.76
X151.87Y-105.76
X153.67Y-112.395
X153.67Y-112.395
X153.67Y-127.635
X153.67Y-127.635
X156.21Y-112.395
X156.21Y-112.395
X156.21Y-127.635
X156.21Y-127.635
X156.972Y-98.298
X156.972Y-105.918
X158.75Y-112.395
X158.75Y-112.395
X158.75Y-127.635
X158.75Y-127.635
X159.512Y-98.298
X159.512Y-105.918
X161.29Y-112.395
X161.29Y-112.395
X161.29Y-127.635
X161.29Y-127.635
X162.052Y-98.298
X162.052Y-105.918
X163.83Y-112.395
X163.83Y-112.395
X163.83Y-127.635
X163.83Y-127.635
X164.592Y-98.298
X164.592Y-105.918
X166.37Y-112.395
X166.37Y-112.395
X166.37Y-127.635
X166.37Y-127.635
X167.132Y-98.298
X167.132Y-105.918
X168.91Y-112.395
X168.91Y-112.395
X168.91Y-127.635
X168.91Y-127.635
X169.672Y-98.298
X169.672Y-105.918
X171.45Y-112.395
X171.45Y-112.395
X171.45Y-127.635
X171.45Y-127.635
X172.212Y-98.298
X172.212Y-105.918
X173.99Y-112.395
X173.99Y-112.395
X173.99Y-127.635
X173.99Y-127.635
X174.752Y-98.298
X174.752Y-105.918
X176.53Y-112.395
X176.53Y-112.395
X176.53Y-127.635
X176.53Y-127.635
X179.07Y-112.395
X179.07Y-112.395
X179.07Y-127.635
X179.07Y-127.635
X179.33Y-97.03
X179.35Y-101.37
X179.42Y-105.62
X181.61Y-112.395
X181.61Y-127.635
X184.15Y-112.395
X184.15Y-127.635
X184.33Y-97.03
X184.35Y-101.37
X184.42Y-105.62
X188.595Y-98.425
X188.595Y-106.045
X189.21Y-117.46
X189.21Y-122.46
X189.21Y-122.46
X191.135Y-98.425
X191.135Y-106.045
X193.548Y-111.76
X193.548Y-114.3
X193.548Y-116.84
X193.548Y-119.38
X193.548Y-121.92
X193.548Y-124.46
X193.548Y-127.0
X193.675Y-98.425
X193.675Y-106.045
X196.215Y-98.425
X196.215Y-106.045
X198.755Y-98.425
X198.755Y-106.045
X201.168Y-111.76
X201.168Y-114.3
X201.168Y-116.84
X201.168Y-119.38
X201.168Y-121.92
X201.168Y-124.46
X201.168Y-127.0
X201.295Y-98.425
X201.295Y-106.045
X203.835Y-98.425
X203.835Y-106.045
X204.53Y-111.89
X204.53Y-116.89
T0
M30
